# File created by Blade
# Date/Time:  Wed Jan 21 14:55:15 2015
# Frame Rate: 120.000 fps
#------------------------------------------------------
:FULLY-SPECIFIED
:DEGREES
1073
root 21.016799 35.534770 -22.788717 -175.223406 -0.852887 -178.679656
Spine -17.663515 -0.383933 -0.332490
Head 13.533127 -3.541373 1.281525
LeftShoulder -15.266011 -29.832670 17.991085
LeftArm 8.444973 2.339260 -9.877766
LeftForeArm 8.094806 0.000000 -2.279896
LeftHand -9.978622 0.000000 -2.491694
LeftHandThumb1 -26.253704 0.000000 33.147579
RightShoulder -13.505410 -5.429693 -7.050039
RightArm 11.456719 39.607646 14.940890
RightForeArm -34.729828 0.000000 6.274527
RightHand -10.593076 -0.000000 3.604428
RightHandThumb1 -24.326973 -0.000000 -32.862282
LeftUpLeg 2.016786 13.432851 3.609532
LeftLeg -4.863474 -0.000000 0.000000
LeftFoot -19.784536 25.424672 -14.218032
LeftToeBase 26.419783 -0.000000 -0.000000
RightUpLeg 0.278427 -11.679064 -1.920804
RightLeg -2.705047 -0.000000 0.000000
RightFoot -18.460709 -22.372815 17.326339
RightToeBase 24.704538 -0.000000 -0.000000
1074
root 21.008844 35.534143 -22.796677 -175.214968 -0.861945 -178.688120
Spine -17.645598 -0.382204 -0.329680
Head 13.527512 -3.550045 1.272598
LeftShoulder -15.264958 -29.815008 17.973742
LeftArm 8.493743 2.321432 -9.902024
LeftForeArm 8.024568 -0.000000 -2.310773
LeftHand -9.973017 -0.000000 -2.458599
LeftHandThumb1 -26.253704 0.000000 33.147579
RightShoulder -13.485258 -5.398982 -7.062501
RightArm 11.397489 39.478763 14.944713
RightForeArm -34.589677 -0.000000 6.298559
RightHand -10.647759 -0.000000 3.650894
RightHandThumb1 -24.326973 -0.000000 -32.862282
LeftUpLeg 2.019019 13.446215 3.590942
LeftLeg -4.861696 -0.000000 0.000000
LeftFoot -19.782812 25.393144 -14.204412
LeftToeBase 26.400138 -0.000000 -0.000000
RightUpLeg 0.291197 -11.722156 -1.942239
RightLeg -2.719742 -0.000000 0.000000
RightFoot -18.454799 -22.346126 17.332164
RightToeBase 24.911606 -0.000000 -0.000000
1075
root 21.001355 35.532952 -22.804281 -175.194527 -0.870058 -178.693205
Spine -17.651144 -0.379609 -0.323540
Head 13.538217 -3.499987 1.281589
LeftShoulder -15.267997 -29.787214 17.971405
LeftArm 8.542388 2.339186 -9.941882
LeftForeArm 7.944832 -0.000000 -2.334701
LeftHand -9.981195 -0.000000 -2.459784
LeftHandThumb1 -26.253704 0.000000 33.147579
RightShoulder -13.488939 -5.414104 -7.087017
RightArm 11.468099 39.572816 15.082730
RightForeArm -34.672398 -0.000000 6.248107
RightHand -10.601844 -0.000000 3.640306
RightHandThumb1 -24.326973 -0.000000 -32.862282
LeftUpLeg 2.013642 13.458693 3.572072
LeftLeg -4.865856 -0.000000 0.000000
LeftFoot -19.799881 25.369646 -14.198956
LeftToeBase 26.386181 -0.000000 -0.000000
RightUpLeg 0.290886 -11.758401 -1.955873
RightLeg -2.734378 -0.000000 0.000000
RightFoot -18.455160 -22.347607 17.332765
RightToeBase 24.811763 -0.000000 -0.000000
1076
root 20.994274 35.532416 -22.811710 -175.178696 -0.856198 -178.699338
Spine -17.645102 -0.365317 -0.320470
Head 13.537709 -3.464856 1.316772
LeftShoulder -15.283417 -29.796075 17.980746
LeftArm 8.567525 2.384218 -9.969498
LeftForeArm 7.924780 -0.000000 -2.336250
LeftHand -9.929610 0.000000 -2.561090
LeftHandThumb1 -26.253704 0.000000 33.147579
RightShoulder -13.479244 -5.457251 -7.085640
RightArm 11.500318 39.659697 15.193059
RightForeArm -34.654234 -0.000000 6.278444
RightHand -10.597359 -0.000000 3.684842
RightHandThumb1 -24.326973 -0.000000 -32.862282
LeftUpLeg 2.013905 13.486635 3.555136
LeftLeg -4.865602 -0.000000 0.000000
LeftFoot -19.817831 25.354989 -14.207887
LeftToeBase 26.376014 -0.000000 -0.000000
RightUpLeg 0.285873 -11.761468 -1.973002
RightLeg -2.735852 -0.000000 0.000000
RightFoot -18.449966 -22.333528 17.331193
RightToeBase 24.724335 -0.000000 -0.000000
1077
root 20.986729 35.531436 -22.819156 -175.156230 -0.843549 -178.711016
Spine -17.646903 -0.328656 -0.330289
Head 13.546447 -3.463845 1.341107
LeftShoulder -15.270004 -29.810320 17.982706
LeftArm 8.585153 2.404673 -10.005675
LeftForeArm 7.903818 -0.000000 -2.331779
LeftHand -9.895239 -0.000000 -2.624828
LeftHandThumb1 -26.253704 0.000000 33.147579
RightShoulder -13.465802 -5.433955 -7.082858
RightArm 11.449586 39.629713 15.204959
RightForeArm -34.584108 -0.000000 6.283988
RightHand -10.512334 0.000000 3.829368
RightHandThumb1 -24.326973 -0.000000 -32.862282
LeftUpLeg 2.014280 13.515292 3.529715
LeftLeg -4.879046 -0.000000 0.000000
LeftFoot -19.825132 25.325240 -14.214141
LeftToeBase 26.390598 -0.000000 -0.000000
RightUpLeg 0.273921 -11.770767 -1.993163
RightLeg -2.740290 -0.000000 0.000000
RightFoot -18.455935 -22.324403 17.324193
RightToeBase 24.736027 -0.000000 -0.000000
1078
root 20.980193 35.530502 -22.826852 -175.136977 -0.823088 -178.714847
Spine -17.650091 -0.290582 -0.326916
Head 13.560540 -3.477365 1.337845
LeftShoulder -15.242936 -29.838796 17.977544
LeftArm 8.571221 2.389515 -10.038653
LeftForeArm 7.890763 -0.000000 -2.317438
LeftHand -9.933313 -0.000000 -2.591337
LeftHandThumb1 -26.253704 0.000000 33.147579
RightShoulder -13.461216 -5.399837 -7.089214
RightArm 11.438029 39.583552 15.237802
RightForeArm -34.538259 -0.000000 6.256359
RightHand -10.584803 -0.000000 3.820121
RightHandThumb1 -24.326973 -0.000000 -32.862282
LeftUpLeg 2.022033 13.544449 3.513606
LeftLeg -4.895242 -0.000000 0.000000
LeftFoot -19.821490 25.314342 -14.198672
LeftToeBase 26.400472 -0.000000 -0.000000
RightUpLeg 0.264501 -11.768816 -2.006246
RightLeg -2.742942 -0.000000 0.000000
RightFoot -18.457146 -22.317980 17.345233
RightToeBase 24.719541 -0.000000 -0.000000
1079
root 20.973745 35.529933 -22.833744 -175.109995 -0.809782 -178.721027
Spine -17.655010 -0.271285 -0.319565
Head 13.539669 -3.489591 1.331842
LeftShoulder -15.226525 -29.858968 17.969565
LeftArm 8.552367 2.383985 -10.063287
LeftForeArm 7.920322 0.000000 -2.314647
LeftHand -9.924289 -0.000000 -2.511615
LeftHandThumb1 -26.253704 0.000000 33.147579
RightShoulder -13.496657 -5.380707 -7.079427
RightArm 11.565785 39.630244 15.353735
RightForeArm -34.583711 -0.000000 6.178702
RightHand -10.598731 -0.000000 3.857065
RightHandThumb1 -24.326973 -0.000000 -32.862282
LeftUpLeg 2.010162 13.561922 3.493651
LeftLeg -4.897385 -0.000000 0.000000
LeftFoot -19.848163 25.289018 -14.227172
LeftToeBase 26.381157 -0.000000 -0.000000
RightUpLeg 0.243948 -11.782851 -2.018761
RightLeg -2.739188 -0.000000 0.000000
RightFoot -18.466241 -22.298767 17.340891
RightToeBase 24.760183 -0.000000 -0.000000
1080
root 20.967855 35.528787 -22.841213 -175.083240 -0.802116 -178.731378
Spine -17.665277 -0.247888 -0.328764
Head 13.520328 -3.539508 1.333467
LeftShoulder -15.190622 -29.875519 17.951074
LeftArm 8.546434 2.373473 -10.055266
LeftForeArm 7.794654 -0.000000 -2.306760
LeftHand -9.909520 0.000000 -2.619516
LeftHandThumb1 -26.253704 0.000000 33.147579
RightShoulder -13.527841 -5.384467 -7.069882
RightArm 11.661869 39.698856 15.475120
RightForeArm -34.662232 -0.000000 6.113693
RightHand -10.573396 0.000000 3.795855
RightHandThumb1 -24.326973 -0.000000 -32.862282
LeftUpLeg 2.000753 13.566596 3.471693
LeftLeg -4.901255 -0.000000 0.000000
LeftFoot -19.857476 25.286980 -14.206964
LeftToeBase 26.390199 -0.000000 -0.000000
RightUpLeg 0.232084 -11.771086 -2.035817
RightLeg -2.746610 -0.000000 0.000000
RightFoot -18.478480 -22.310581 17.332927
RightToeBase 24.758561 -0.000000 -0.000000
1081
root 20.962350 35.527869 -22.848970 -175.061250 -0.793120 -178.736449
Spine -17.673227 -0.234829 -0.328696
Head 13.510490 -3.560384 1.350853
LeftShoulder -15.167917 -29.883952 17.956791
LeftArm 8.512631 2.370629 -10.075574
LeftForeArm 7.729270 0.000000 -2.268398
LeftHand -9.882255 -0.000000 -2.750917
LeftHandThumb1 -26.253704 0.000000 33.147579
RightShoulder -13.518245 -5.401914 -7.054759
RightArm 11.665853 39.686062 15.517631
RightForeArm -34.568770 -0.000000 6.098381
RightHand -10.500372 0.000000 3.844080
RightHandThumb1 -24.326973 -0.000000 -32.862282
LeftUpLeg 2.001781 13.548608 3.458194
LeftLeg -4.913346 -0.000000 0.000000
LeftFoot -19.874374 25.297916 -14.213340
LeftToeBase 26.436324 -0.000000 -0.000000
RightUpLeg 0.224742 -11.774768 -2.047352
RightLeg -2.752970 -0.000000 0.000000
RightFoot -18.479930 -22.300688 17.366103
RightToeBase 24.713908 -0.000000 -0.000000
1082
root 20.956172 35.526456 -22.857010 -175.028996 -0.790685 -178.745758
Spine -17.689025 -0.239473 -0.329451
Head 13.493078 -3.568489 1.381657
LeftShoulder -15.193645 -29.849112 17.986250
LeftArm 8.537600 2.318681 -10.129475
LeftForeArm 7.711003 -0.000000 -2.273650
LeftHand -9.947741 -0.000000 -2.741556
LeftHandThumb1 -26.253704 0.000000 33.147579
RightShoulder -13.437491 -5.282268 -7.038302
RightArm 11.504446 39.621527 15.415638
RightForeArm -34.573493 0.000000 6.155944
RightHand -10.603567 0.000000 4.125015
RightHandThumb1 -24.326973 -0.000000 -32.862282
LeftUpLeg 1.981670 13.543128 3.435108
LeftLeg -4.907667 -0.000000 0.000000
LeftFoot -19.898838 25.292051 -14.221689
LeftToeBase 26.449808 -0.000000 -0.000000
RightUpLeg 0.204415 -11.780014 -2.062968
RightLeg -2.751470 -0.000000 0.000000
RightFoot -18.496663 -22.300642 17.359349
RightToeBase 24.777112 -0.000000 -0.000000
1083
root 20.950622 35.525553 -22.866552 -175.016481 -0.799091 -178.756045
Spine -17.692434 -0.231270 -0.327651
Head 13.512363 -3.567309 1.374313
LeftShoulder -15.139115 -29.903544 17.974201
LeftArm 8.494270 2.346240 -10.133990
LeftForeArm 7.712524 -0.000000 -2.287427
LeftHand -9.931196 0.000000 -2.791933
LeftHandThumb1 -26.253704 0.000000 33.147579
RightShoulder -13.514717 -5.462031 -7.006633
RightArm 11.745185 39.814129 15.635457
RightForeArm -34.441947 -0.000000 6.062163
RightHand -10.611917 -0.000000 4.023552
RightHandThumb1 -24.326973 -0.000000 -32.862282
LeftUpLeg 1.990190 13.508363 3.418944
LeftLeg -4.917357 -0.000000 0.000000
LeftFoot -19.911016 25.310016 -14.245248
LeftToeBase 26.363131 -0.000000 -0.000000
RightUpLeg 0.216893 -11.795082 -2.083380
RightLeg -2.764492 -0.000000 0.000000
RightFoot -18.520214 -22.288875 17.373826
RightToeBase 24.846637 -0.000000 -0.000000
1084
root 20.944629 35.524506 -22.876220 -175.008802 -0.790871 -178.762424
Spine -17.684223 -0.221935 -0.321449
Head 13.517553 -3.554894 1.381741
LeftShoulder -15.168397 -29.834298 17.970687
LeftArm 8.569470 2.295686 -10.171215
LeftForeArm 7.669467 -0.000000 -2.320503
LeftHand -9.925070 0.000000 -2.836945
LeftHandThumb1 -26.253704 0.000000 33.147579
RightShoulder -13.497721 -5.449697 -6.997131
RightArm 11.760854 39.836191 15.685054
RightForeArm -34.461342 -0.000000 6.016828
RightHand -10.614600 -0.000000 3.998657
RightHandThumb1 -24.326973 -0.000000 -32.862282
LeftUpLeg 2.006619 13.487815 3.406684
LeftLeg -4.925482 -0.000000 0.000000
LeftFoot -19.930350 25.323288 -14.241878
LeftToeBase 26.414338 -0.000000 -0.000000
RightUpLeg 0.228999 -11.797218 -2.102377
RightLeg -2.773889 -0.000000 0.000000
RightFoot -18.522697 -22.271400 17.411746
RightToeBase 24.780173 -0.000000 -0.000000
